Coordinates
version=1
nRows=8
nColumns=40
inDegrees=yes

Units are S.I. units (second, meters, Newtons, ...)
If the header above contains a line with 'inDegrees', this indicates whether rotational values are in degrees (yes) or radians (no).

endheader
time	pelvis_tilt	pelvis_list	pelvis_rotation	pelvis_tx	pelvis_ty	pelvis_tz	hip_flexion_r	hip_adduction_r	hip_rotation_r	knee_angle_r	knee_angle_r_beta	ankle_angle_r	subtalar_angle_r	mtp_angle_r	hip_flexion_l	hip_adduction_l	hip_rotation_l	knee_angle_l	knee_angle_l_beta	ankle_angle_l	subtalar_angle_l	mtp_angle_l	lumbar_extension	lumbar_bending	lumbar_rotation	arm_flex_r	arm_add_r	arm_rot_r	elbow_flex_r	pro_sup_r	wrist_flex_r	wrist_dev_r	arm_flex_l	arm_add_l	arm_rot_l	elbow_flex_l	pro_sup_l	wrist_flex_l	wrist_dev_l
      2.90000000	     -3.39955479	     -7.93776647	     87.12823535	      0.25794922	      0.86511756	     -0.10731461	     -2.46430255	     -9.65897974	    -11.75575327	     32.65779250	      0.56998601	    -16.87513174	      0.00000000	      0.00000000	     19.43909966	      5.00055415	     -8.72263036	      8.98681592	      0.15684953	     -8.88325403	      0.00000000	      0.00000000	      2.86671096	     -2.29225373	      3.69944285	     -6.07361214	     -6.51162441	      7.82396920	     35.68207206	     89.06787932	    -25.73275014	      1.08703774	     -7.21464385	     -8.49154909	     10.39404917	     40.11200805	     89.19171291	    -24.75893798	     -3.20788791
      2.91000000	     -3.69371536	     -8.28742138	     87.05540610	      0.25606299	      0.86499765	     -0.11179767	     -1.31437247	    -10.30144077	    -11.66106947	     34.39690954	      0.60033932	    -17.27831688	      0.00000000	      0.00000000	     19.40131527	      5.44708786	     -8.97037227	      8.76844213	      0.15303819	     -8.81798421	      0.00000000	      0.00000000	      3.20261277	     -2.60091204	      3.59868542	     -5.90466804	     -6.41032033	      7.47572290	     36.19345296	     89.07698651	    -25.73912532	      1.11723851	     -7.22241788	     -8.63515220	      9.93800883	     40.63118190	     89.20406894	    -24.69158029	     -3.06363843
      2.92000000	     -3.53942253	     -8.25034506	     87.20928121	      0.25416835	      0.86558469	     -0.11604430	     -0.70311402	    -10.40842736	    -11.68382891	     35.86859192	      0.62602503	    -17.89375093	      0.00000000	      0.00000000	     18.94127363	      5.49531193	     -8.88395455	      8.57750392	      0.14970569	     -8.58473596	      0.00000000	      0.00000000	      3.01708533	     -2.45496835	      3.32069656	     -5.57140395	     -6.42191571	      7.42322987	     36.60838940	     89.07635924	    -25.72316086	      1.05292199	     -6.98607281	     -8.78666387	      9.92491571	     40.89387793	     89.20279125	    -24.65823482	     -3.06732364
      2.93000000	     -3.69333964	     -8.66130188	     87.18612324	      0.25235835	      0.86535223	     -0.12018132	      0.58476559	    -10.84294018	    -11.45513028	     37.63280877	      0.65681642	    -18.20607472	      0.00000000	      0.00000000	     19.03199036	      5.79097788	     -8.95278664	      8.46777690	      0.14779059	     -8.42684607	      0.00000000	      0.00000000	      3.42032415	     -2.60391275	      3.22821893	     -5.45031682	     -6.34675031	      6.99053559	     37.26930416	     89.08318414	    -25.49990295	      1.23898892	     -6.86897963	     -8.94801460	      9.73395494	     41.21918140	     89.20764149	    -24.38609664	     -2.73576214
      2.94000000	     -3.62558677	     -8.57680795	     87.35227384	      0.25054514	      0.86590582	     -0.12430697	      1.19154820	    -11.01258529	    -11.39585958	     39.10617766	      0.68253156	    -18.65128800	      0.00000000	      0.00000000	     18.55375027	      5.92978868	     -8.79097040	      8.31785963	      0.14517404	     -8.22439866	      0.00000000	      0.00000000	      3.19879980	     -2.56825760	      2.93286640	     -5.16579812	     -6.32812899	      6.80554392	     37.86118588	     89.07740470	    -25.48844409	      1.16840807	     -6.61656749	     -9.10481364	      9.64882294	     41.43358494	     89.20827038	    -24.35949449	     -2.73141176
      2.95000000	     -3.65658774	     -8.64702106	     87.46406112	      0.24886672	      0.86616830	     -0.12847586	      1.99312399	    -11.29430501	    -11.34772432	     40.60838341	      0.70874999	    -18.79869099	      0.00000000	      0.00000000	     18.22403363	      6.14290776	     -8.84940464	      8.11551224	      0.14164241	     -8.08047870	      0.00000000	      0.00000000	      3.20198414	     -2.62801392	      2.70898992	     -4.99397596	     -6.22780700	      6.38067461	     38.54204672	     89.08503057	    -25.42552720	      1.22811630	     -6.40071447	     -9.28151531	      9.57958505	     41.62804315	     89.21198099	    -24.31081259	     -2.61876072
      2.96000000	     -3.50061452	     -8.55262477	     87.65861733	      0.24713506	      0.86672079	     -0.13253815	      2.56093360	    -11.34880795	    -11.31049917	     41.92885743	      0.73179661	    -19.05723028	      0.00000000	      0.00000000	     17.73678903	      6.18334150	     -8.72315840	      7.96861371	      0.13907855	     -7.89204812	      0.00000000	      0.00000000	      3.00849753	     -2.48856627	      2.39745973	     -4.71745955	     -6.24593057	      6.33032260	     39.11003868	     89.08052680	    -25.38109677	      1.16848258	     -6.11905298	     -9.41462024	      9.58185740	     41.70922287	     89.21178755	    -24.29495806	     -2.59444856
      2.97000000	     -3.41095967	     -8.48018693	     87.83028981	      0.24550522	      0.86718242	     -0.13656246	      3.16622839	    -11.46837758	    -11.24834904	     43.21290770	      0.75420752	    -19.13137011	      0.00000000	      0.00000000	     17.28340371	      6.27966305	     -8.59818075	      7.82988853	      0.13665733	     -7.69737285	      0.00000000	      0.00000000	      2.85465181	     -2.42569500	      2.11377019	     -4.49780459	     -6.24310750	      6.18718232	     39.78682323	     89.07466544	    -25.34600860	      1.12259008	     -5.83967662	     -9.56490033	      9.56190482	     41.77331183	     89.21426965	    -24.29208918	     -2.55200305
